<svg xmlns="http://www.w3.org/2000/svg" width="72.882" height="72.886" viewBox="0 0 72.882 72.886">
  <g id="Group_445" data-name="Group 445" transform="translate(-1748 -3683.114)">
    <g id="Group_313" data-name="Group 313" transform="translate(1748 3683.114)">
      <path id="Path_130" data-name="Path 130" d="M46.385,83.3A36.443,36.443,0,1,1,82.831,46.868,36.485,36.485,0,0,1,46.385,83.3m0-66.582A30.127,30.127,0,1,0,76.5,46.868,30.179,30.179,0,0,0,46.385,16.722" transform="translate(-9.949 -10.418)" fill="#fff"/>
      <path id="Path_133" data-name="Path 133" d="M68.843,45.708c.01-.017.023-.267.023-.267a7.329,7.329,0,0,0-14.656-.12l-.019.44v.492l-.05,5.73v.6a1.816,1.816,0,0,1-1.82,1.82,1.785,1.785,0,0,1-1.553-.891,1.85,1.85,0,0,1-.264-.929v-.6l-.065-5.73v-.811a7.338,7.338,0,1,0-14.675.079v.093l-.014.284.014.063v.293l-.079,5.809v.521a1.835,1.835,0,0,1-1.833,1.82,1.8,1.8,0,0,1-1.553-.891,1.85,1.85,0,0,1-.264-.929V43.774a2.823,2.823,0,0,0-.4-1.435,2.7,2.7,0,0,0-2.345-1.328,2.738,2.738,0,0,0-2.72,2.763V52.7a7.3,7.3,0,0,0,7.28,7.309,7.405,7.405,0,0,0,7.376-6.966c0-.027.029-.58.029-.58l-.01-.258v-.316l.023-6.331A1.843,1.843,0,0,1,43.1,43.744a1.8,1.8,0,0,1,1.536.89,1.7,1.7,0,0,1,.281.926v.574l.066,5.731V52.7a7.345,7.345,0,0,0,14.689,0V51.89l.065-5.757v-.574a1.817,1.817,0,0,1,3.379-.926,1.78,1.78,0,0,1,.271.926v.653l.013,5.652v2.509a2.824,2.824,0,0,0,.4,1.435,2.747,2.747,0,0,0,5.1-1.435V46.305S68.853,45.818,68.843,45.708Z" transform="translate(-11.283 -12.641)" fill="#fff"/>
    </g>
  </g>
</svg>
